<svg width="300" height="296" viewBox="0 0 300 296" fill="none" xmlns="http://www.w3.org/2000/svg">
<mask id="path-1-outside-1_33_90" maskUnits="userSpaceOnUse" x="-0.952881" y="-0.810547" width="301" height="297" fill="black">
<rect fill="white" x="-0.952881" y="-0.810547" width="301" height="297"/>
<path d="M198.024 30.9989C197.87 26.5207 203.521 24.4419 206.248 27.9735L227.267 55.1903C228.486 56.7688 230.584 57.3706 232.46 56.6805L264.628 44.8465C268.805 43.31 272.476 48.0186 269.997 51.7332L250.804 80.5008C249.7 82.1562 249.77 84.33 250.98 85.8963L272.07 113.206C274.791 116.731 271.409 121.72 267.137 120.48L250.601 115.681C250.615 116.243 250.622 116.807 250.622 117.372C250.622 135.839 243.227 152.56 231.27 164.671L138.334 258.893L82.7708 202.7L70.7297 220.749C68.2439 224.474 62.4821 222.849 62.3284 218.379L61.3997 191.363C61.3314 189.377 60.0048 187.665 58.1067 187.114L32.3645 179.643C28.1055 178.408 27.9266 172.414 32.1028 170.878L46.1829 165.697L45.2834 164.788L45.3997 164.67C33.4423 152.559 26.0473 135.839 26.0471 117.372C26.0473 80.4017 55.6826 50.4305 92.2385 50.4305C110.161 50.4307 126.416 57.638 138.334 69.3387C150.252 57.638 166.509 50.4307 184.431 50.4305C189.346 50.4305 194.135 50.9732 198.744 52.0008L198.024 30.9989Z"/>
</mask>
<path d="M198.024 30.9989L171.992 31.8913L171.992 31.8922L198.024 30.9989ZM206.248 27.9735L185.633 43.8938L185.633 43.8939L206.248 27.9735ZM227.267 55.1903L206.652 71.1107L206.652 71.1115L227.267 55.1903ZM232.46 56.6805L223.467 32.2351L223.467 32.2353L232.46 56.6805ZM264.628 44.8465L273.621 69.2919L273.621 69.2918L264.628 44.8465ZM269.997 51.7332L248.33 37.2769L248.33 37.2771L269.997 51.7332ZM250.804 80.5008L229.137 66.0447L229.136 66.0451L250.804 80.5008ZM250.98 85.8963L271.595 69.9761L271.595 69.976L250.98 85.8963ZM272.07 113.206L292.687 97.288L292.685 97.2856L272.07 113.206ZM267.137 120.48L259.878 145.495L259.878 145.495L267.137 120.48ZM250.601 115.681L257.86 90.6665L223.69 80.7501L224.562 116.32L250.601 115.681ZM250.622 117.372L276.669 117.372L276.669 117.372L250.622 117.372ZM231.27 164.671L212.735 146.37L212.725 146.38L231.27 164.671ZM138.334 258.893L119.813 277.207L138.357 295.962L156.879 277.184L138.334 258.893ZM82.7708 202.7L101.292 184.386L78.8315 161.671L61.103 188.245L82.7708 202.7ZM70.7297 220.749L92.3963 235.206L92.3975 235.204L70.7297 220.749ZM62.3284 218.379L36.2967 219.274L36.2967 219.274L62.3284 218.379ZM61.3997 191.363L35.3679 192.258L35.368 192.258L61.3997 191.363ZM58.1067 187.114L50.847 212.129L50.8477 212.129L58.1067 187.114ZM32.3645 179.643L39.6242 154.628L39.6235 154.628L32.3645 179.643ZM32.1028 170.878L23.1085 146.433L23.1078 146.433L32.1028 170.878ZM46.1829 165.697L55.1772 190.142L93.1737 176.161L64.7001 147.379L46.1829 165.697ZM45.2834 164.788L26.7125 146.524L8.6977 164.842L26.7662 183.106L45.2834 164.788ZM45.3997 164.67L63.9706 182.934L81.9678 164.634L63.9348 146.37L45.3997 164.67ZM26.0471 117.372L3.8147e-05 117.372V117.372L26.0471 117.372ZM92.2385 50.4305L92.2388 24.3834H92.2385V50.4305ZM138.334 69.3387L120.087 87.9256L138.334 105.84L156.582 87.9256L138.334 69.3387ZM184.431 50.4305V24.3834H184.431L184.431 50.4305ZM198.744 52.0008L193.076 77.4238L225.931 84.7484L224.776 51.1075L198.744 52.0008ZM198.024 30.9989L224.055 30.1065C224.743 50.1685 198.822 60.973 185.633 43.8938L206.248 27.9735L226.864 12.0532C208.22 -12.0892 170.997 2.87289 171.992 31.8913L198.024 30.9989ZM206.248 27.9735L185.633 43.8939L206.652 71.1107L227.267 55.1903L247.882 39.2698L226.864 12.053L206.248 27.9735ZM227.267 55.1903L206.652 71.1115C214.846 81.7207 228.943 85.7284 241.454 81.1258L232.46 56.6805L223.467 32.2353C232.226 29.0128 242.126 31.8168 247.882 39.269L227.267 55.1903ZM232.46 56.6805L241.453 81.1259L273.621 69.2919L264.628 44.8465L255.635 20.4011L223.467 32.2351L232.46 56.6805ZM264.628 44.8465L273.621 69.2918C253.582 76.6641 237.145 54.042 248.33 37.2769L269.997 51.7332L291.664 66.1896C307.807 41.9953 284.027 9.95591 255.635 20.4013L264.628 44.8465ZM269.997 51.7332L248.33 37.2771L229.137 66.0447L250.804 80.5008L272.471 94.957L291.665 66.1894L269.997 51.7332ZM250.804 80.5008L229.136 66.0451C221.876 76.9279 222.266 91.33 230.364 101.817L250.98 85.8963L271.595 69.976C277.274 77.33 277.523 87.3846 272.472 94.9565L250.804 80.5008ZM250.98 85.8963L230.364 101.817L251.454 129.126L272.07 113.206L292.685 97.2856L271.595 69.9761L250.98 85.8963ZM272.07 113.206L251.452 129.124C238.913 112.883 254.251 89.6193 274.396 95.4652L267.137 120.48L259.878 145.495C288.567 153.821 310.67 120.58 292.687 97.288L272.07 113.206ZM267.137 120.48L274.396 95.4653L257.86 90.6665L250.601 115.681L243.341 140.697L259.878 145.495L267.137 120.48ZM250.601 115.681L224.562 116.32C224.571 116.694 224.575 117.043 224.575 117.372L250.622 117.372L276.669 117.372C276.669 116.57 276.658 115.793 276.64 115.043L250.601 115.681ZM250.622 117.372L224.575 117.372C224.575 128.756 220.045 138.966 212.735 146.37L231.27 164.671L249.805 182.971C266.41 166.153 276.669 142.922 276.669 117.372L250.622 117.372ZM231.27 164.671L212.725 146.38L119.79 240.602L138.334 258.893L156.879 277.184L249.814 182.962L231.27 164.671ZM138.334 258.893L156.856 240.579L101.292 184.386L82.7708 202.7L64.2492 221.014L119.813 277.207L138.334 258.893ZM82.7708 202.7L61.103 188.245L49.0619 206.294L70.7297 220.749L92.3975 235.204L104.439 217.155L82.7708 202.7ZM70.7297 220.749L49.0631 206.292C60.4945 189.16 87.6358 196.431 88.3601 217.483L62.3284 218.379L36.2967 219.274C37.3284 249.266 75.9933 259.789 92.3963 235.206L70.7297 220.749ZM62.3284 218.379L88.3601 217.484L87.4314 190.468L61.3997 191.363L35.368 192.258L36.2967 219.274L62.3284 218.379ZM61.3997 191.363L87.4314 190.469C86.9796 177.318 78.1617 165.812 65.3657 162.099L58.1067 187.114L50.8477 212.129C41.8478 209.518 35.6833 201.435 35.3679 192.258L61.3997 191.363ZM58.1067 187.114L65.3663 162.099L39.6242 154.628L32.3645 179.643L25.1049 204.658L50.847 212.129L58.1067 187.114ZM32.3645 179.643L39.6235 154.628C60.0711 160.562 59.971 188.378 41.0978 195.322L32.1028 170.878L23.1078 146.433C-4.11774 156.451 -3.86001 196.253 25.1055 204.659L32.3645 179.643ZM32.1028 170.878L41.0971 195.323L55.1772 190.142L46.1829 165.697L37.1885 141.252L23.1085 146.433L32.1028 170.878ZM46.1829 165.697L64.7001 147.379L63.8007 146.47L45.2834 164.788L26.7662 183.106L27.6656 184.015L46.1829 165.697ZM45.2834 164.788L63.8544 183.052L63.9706 182.934L45.3997 164.67L26.8288 146.406L26.7125 146.524L45.2834 164.788ZM45.3997 164.67L63.9348 146.37C56.6243 138.965 52.0943 128.755 52.0942 117.372L26.0471 117.372L3.8147e-05 117.372C0.000272751 142.923 10.2603 166.153 26.8645 182.97L45.3997 164.67ZM26.0471 117.372L52.0942 117.372C52.0943 94.5096 70.344 76.4776 92.2385 76.4776V50.4305V24.3834C41.0212 24.3834 0.000249863 66.2938 3.8147e-05 117.372L26.0471 117.372ZM92.2385 50.4305L92.2382 76.4776C103.018 76.4777 112.807 80.7792 120.087 87.9256L138.334 69.3387L156.582 50.7518C140.025 34.4968 117.303 24.3837 92.2388 24.3834L92.2385 50.4305ZM138.334 69.3387L156.582 87.9256C163.861 80.7795 173.651 76.4777 184.431 76.4776L184.431 50.4305L184.431 24.3834C159.367 24.3837 136.644 34.4964 120.087 50.7518L138.334 69.3387ZM184.431 50.4305V76.4776C187.422 76.4776 190.311 76.8073 193.076 77.4238L198.744 52.0008L204.412 26.5779C197.959 25.1391 191.269 24.3834 184.431 24.3834V50.4305ZM198.744 52.0008L224.776 51.1075L224.055 30.1056L198.024 30.9989L171.992 31.8922L172.713 52.8941L198.744 52.0008Z" fill="#FF47C8" mask="url(#path-1-outside-1_33_90)"/>
<mask id="path-3-outside-2_33_90" maskUnits="userSpaceOnUse" x="14.0471" y="14.1895" width="271" height="262" fill="black">
<rect fill="white" x="14.0471" y="14.1895" width="271" height="262"/>
<path d="M198.024 30.9989C197.87 26.5207 203.521 24.4419 206.248 27.9735L227.267 55.1903C228.486 56.7688 230.584 57.3706 232.46 56.6805L264.628 44.8465C268.805 43.31 272.476 48.0186 269.997 51.7332L250.804 80.5008C249.7 82.1562 249.77 84.33 250.98 85.8963L272.07 113.206C274.791 116.731 271.409 121.72 267.137 120.48L250.601 115.681C250.615 116.243 250.622 116.807 250.622 117.372C250.622 135.839 243.227 152.56 231.27 164.671L138.334 258.893L82.7708 202.7L70.7297 220.749C68.2439 224.474 62.4821 222.849 62.3284 218.379L61.3997 191.363C61.3314 189.377 60.0048 187.665 58.1067 187.114L32.3645 179.643C28.1055 178.408 27.9266 172.414 32.1028 170.878L46.1829 165.697L45.2834 164.788L45.3997 164.67C33.4423 152.559 26.0473 135.839 26.0471 117.372C26.0473 80.4017 55.6826 50.4305 92.2385 50.4305C110.161 50.4307 126.416 57.638 138.334 69.3387C150.252 57.638 166.509 50.4307 184.431 50.4305C189.346 50.4305 194.135 50.9732 198.744 52.0008L198.024 30.9989Z"/>
</mask>
<path d="M198.024 30.9989C197.87 26.5207 203.521 24.4419 206.248 27.9735L227.267 55.1903C228.486 56.7688 230.584 57.3706 232.46 56.6805L264.628 44.8465C268.805 43.31 272.476 48.0186 269.997 51.7332L250.804 80.5008C249.7 82.1562 249.77 84.33 250.98 85.8963L272.07 113.206C274.791 116.731 271.409 121.72 267.137 120.48L250.601 115.681C250.615 116.243 250.622 116.807 250.622 117.372C250.622 135.839 243.227 152.56 231.27 164.671L138.334 258.893L82.7708 202.7L70.7297 220.749C68.2439 224.474 62.4821 222.849 62.3284 218.379L61.3997 191.363C61.3314 189.377 60.0048 187.665 58.1067 187.114L32.3645 179.643C28.1055 178.408 27.9266 172.414 32.1028 170.878L46.1829 165.697L45.2834 164.788L45.3997 164.67C33.4423 152.559 26.0473 135.839 26.0471 117.372C26.0473 80.4017 55.6826 50.4305 92.2385 50.4305C110.161 50.4307 126.416 57.638 138.334 69.3387C150.252 57.638 166.509 50.4307 184.431 50.4305C189.346 50.4305 194.135 50.9732 198.744 52.0008L198.024 30.9989Z" fill="#FF47C8"/>
<path d="M198.024 30.9989L186.267 31.4019V31.4023L198.024 30.9989ZM206.248 27.9735L196.938 35.1635L196.938 35.1636L206.248 27.9735ZM227.267 55.1903L217.956 62.3804L217.957 62.3808L227.267 55.1903ZM232.46 56.6805L228.399 45.6403L228.399 45.6404L232.46 56.6805ZM264.628 44.8465L268.69 55.8867L268.69 55.8867L264.628 44.8465ZM269.997 51.7332L260.212 45.2044L260.212 45.2045L269.997 51.7332ZM250.804 80.5008L241.018 73.972L241.018 73.9722L250.804 80.5008ZM250.98 85.8963L260.29 78.7063L260.29 78.7063L250.98 85.8963ZM272.07 113.206L281.381 106.017L281.38 106.016L272.07 113.206ZM267.137 120.48L263.858 131.778L263.859 131.778L267.137 120.48ZM250.601 115.681L253.879 104.384L238.447 99.9055L238.841 115.97L250.601 115.681ZM250.622 117.372L262.386 117.372V117.372L250.622 117.372ZM231.27 164.671L222.899 156.406L222.895 156.41L231.27 164.671ZM138.334 258.893L129.969 267.164L138.345 275.635L146.709 267.154L138.334 258.893ZM82.7708 202.7L91.1356 194.429L80.9917 184.17L72.985 196.172L82.7708 202.7ZM70.7297 220.749L80.515 227.278L80.5155 227.277L70.7297 220.749ZM62.3284 218.379L50.5717 218.783L50.5718 218.783L62.3284 218.379ZM61.3997 191.363L49.643 191.767L49.643 191.767L61.3997 191.363ZM58.1067 187.114L54.828 198.412L54.8283 198.412L58.1067 187.114ZM32.3645 179.643L35.6432 168.346L35.6429 168.346L32.3645 179.643ZM32.1028 170.878L28.0407 159.838L28.0404 159.838L32.1028 170.878ZM46.1829 165.697L50.2449 176.737L67.4052 170.423L54.5458 157.424L46.1829 165.697ZM45.2834 164.788L36.8963 156.539L28.7603 164.812L36.9206 173.061L45.2834 164.788ZM45.3997 164.67L53.7868 172.918L61.9148 164.654L53.7707 156.405L45.3997 164.67ZM26.0471 117.372L14.2836 117.372V117.372L26.0471 117.372ZM92.2385 50.4305L92.2387 38.6669H92.2385V50.4305ZM138.334 69.3387L130.093 77.7331L138.334 85.8238L146.575 77.7331L138.334 69.3387ZM184.431 50.4305V38.6669H184.431L184.431 50.4305ZM198.744 52.0008L196.185 63.4825L211.022 66.7905L210.501 51.5974L198.744 52.0008ZM198.024 30.9989L209.78 30.5958C210.007 37.2007 201.399 40.9403 196.938 35.1635L206.248 27.9735L215.559 20.7834C205.643 7.94345 185.734 15.8407 186.267 31.4019L198.024 30.9989ZM206.248 27.9735L196.938 35.1636L217.956 62.3804L227.267 55.1903L236.577 48.0002L215.559 20.7834L206.248 27.9735ZM227.267 55.1903L217.957 62.3808C222.326 68.0378 229.843 70.1778 236.522 67.7207L232.46 56.6805L228.399 45.6404C231.326 44.5634 234.646 45.4998 236.577 47.9998L227.267 55.1903ZM232.46 56.6805L236.522 67.7207L268.69 55.8867L264.628 44.8465L260.567 33.8063L228.399 45.6403L232.46 56.6805ZM264.628 44.8465L268.69 55.8867C261.93 58.3736 256.519 50.7389 260.212 45.2044L269.997 51.7332L279.783 58.2621C288.432 45.2983 275.679 28.2464 260.567 33.8064L264.628 44.8465ZM269.997 51.7332L260.212 45.2045L241.018 73.972L250.804 80.5008L260.589 87.0296L279.783 58.262L269.997 51.7332ZM250.804 80.5008L241.018 73.9722C237.134 79.795 237.349 87.4914 241.669 93.0864L250.98 85.8963L260.29 78.7063C262.192 81.1686 262.265 84.5175 260.59 87.0294L250.804 80.5008ZM250.98 85.8963L241.669 93.0864L262.759 120.396L272.07 113.206L281.38 106.016L260.29 78.7063L250.98 85.8963ZM272.07 113.206L262.758 120.395C258.588 114.993 263.66 107.222 270.415 109.183L267.137 120.48L263.859 131.778C279.158 136.217 290.995 118.469 281.381 106.017L272.07 113.206ZM267.137 120.48L270.416 109.183L253.879 104.384L250.601 115.681L247.322 126.979L263.858 131.778L267.137 120.48ZM250.601 115.681L238.841 115.97C238.852 116.447 238.859 116.914 238.859 117.372L250.622 117.372L262.386 117.372C262.386 116.7 262.377 116.04 262.361 115.393L250.601 115.681ZM250.622 117.372L238.859 117.372C238.859 132.64 232.758 146.421 222.899 156.406L231.27 164.671L239.641 172.936C253.697 158.699 262.386 139.038 262.386 117.372L250.622 117.372ZM231.27 164.671L222.895 156.41L129.959 250.633L138.334 258.893L146.709 267.154L239.645 172.931L231.27 164.671ZM138.334 258.893L146.699 250.622L91.1356 194.429L82.7708 202.7L74.4059 210.971L129.969 267.164L138.334 258.893ZM82.7708 202.7L72.985 196.172L60.944 214.22L70.7297 220.749L80.5155 227.277L92.5565 209.228L82.7708 202.7ZM70.7297 220.749L60.9445 214.22C64.7441 208.525 73.8422 210.918 74.085 217.974L62.3284 218.379L50.5718 218.783C51.1221 234.78 71.7437 240.423 80.515 227.278L70.7297 220.749ZM62.3284 218.379L74.085 217.975L73.1563 190.959L61.3997 191.363L49.643 191.767L50.5717 218.783L62.3284 218.379ZM61.3997 191.363L73.1563 190.959C72.9148 183.931 68.2049 177.796 61.3851 175.817L58.1067 187.114L54.8283 198.412C51.8046 197.534 49.748 194.823 49.643 191.767L61.3997 191.363ZM58.1067 187.114L61.3853 175.817L35.6432 168.346L32.3645 179.643L29.0858 190.941L54.828 198.412L58.1067 187.114ZM32.3645 179.643L35.6429 168.346C42.542 170.348 42.3987 179.624 36.1652 181.918L32.1028 170.878L28.0404 159.838C13.4545 165.205 13.669 186.467 29.0861 190.941L32.3645 179.643ZM32.1028 170.878L36.1649 181.918L50.2449 176.737L46.1829 165.697L42.1208 154.657L28.0407 159.838L32.1028 170.878ZM46.1829 165.697L54.5458 157.424L53.6463 156.515L45.2834 164.788L36.9206 173.061L37.82 173.97L46.1829 165.697ZM45.2834 164.788L53.6706 173.036L53.7868 172.918L45.3997 164.67L37.0125 156.421L36.8963 156.539L45.2834 164.788ZM45.3997 164.67L53.7707 156.405C43.9119 146.42 37.8108 132.64 37.8107 117.372L26.0471 117.372L14.2836 117.372C14.2838 139.038 22.9726 158.698 37.0287 172.935L45.3997 164.67ZM26.0471 117.372L37.8107 117.372C37.8108 86.7732 62.3041 62.1941 92.2385 62.1941V50.4305V38.6669C49.0611 38.6669 14.2837 74.0302 14.2836 117.372L26.0471 117.372ZM92.2385 50.4305L92.2384 62.1941C106.935 62.1942 120.27 68.0892 130.093 77.7331L138.334 69.3387L146.575 60.9444C132.562 47.1868 113.386 38.6672 92.2387 38.6669L92.2385 50.4305ZM138.334 69.3387L146.575 77.7331C156.398 68.0893 169.734 62.1942 184.431 62.1941L184.431 50.4305L184.431 38.6669C163.283 38.6672 144.107 47.1866 130.093 60.9444L138.334 69.3387ZM184.431 50.4305V62.1941C188.477 62.1941 192.408 62.6406 196.185 63.4825L198.744 52.0008L201.304 40.5191C195.862 39.3058 190.214 38.6669 184.431 38.6669V50.4305ZM198.744 52.0008L210.501 51.5974L209.78 30.5954L198.024 30.9989L186.267 31.4023L186.988 52.4043L198.744 52.0008Z" fill="white" mask="url(#path-3-outside-2_33_90)"/>
</svg>
