<svg width="64" height="59" viewBox="0 0 64 59" fill="none" xmlns="http://www.w3.org/2000/svg">
<mask id="path-1-inside-1_27_22" fill="white">
<path d="M45.1357 0C55.5535 0 63.999 8.44551 63.999 18.8633C63.999 24.0673 61.8914 28.7787 58.4834 32.1914L58.5166 32.2246L31.999 58.7422L5.48145 32.2246L5.51465 32.1904C2.10721 28.7778 6.33353e-05 24.0668 0 18.8633C0 8.44562 8.44469 0.000183751 18.8623 0C23.9698 0 28.6025 2.03102 31.999 5.32812C35.3955 2.03088 40.0282 0.000125341 45.1357 0Z"/>
</mask>
<path d="M45.1357 0C55.5535 0 63.999 8.44551 63.999 18.8633C63.999 24.0673 61.8914 28.7787 58.4834 32.1914L58.5166 32.2246L31.999 58.7422L5.48145 32.2246L5.51465 32.1904C2.10721 28.7778 6.33353e-05 24.0668 0 18.8633C0 8.44562 8.44469 0.000183751 18.8623 0C23.9698 0 28.6025 2.03102 31.999 5.32812C35.3955 2.03088 40.0282 0.000125341 45.1357 0Z" fill="#300D25"/>
<path d="M45.1357 0V-2H45.1357L45.1357 0ZM63.999 18.8633L65.999 18.8633V18.8633H63.999ZM58.4834 32.1914L57.0682 30.7782L55.656 32.1924L57.0692 33.6056L58.4834 32.1914ZM58.5166 32.2246L59.9308 33.6388L61.345 32.2246L59.9308 30.8104L58.5166 32.2246ZM31.999 58.7422L30.5848 60.1564L31.999 61.5706L33.4132 60.1564L31.999 58.7422ZM5.48145 32.2246L4.04689 30.831L2.67337 32.245L4.06723 33.6388L5.48145 32.2246ZM5.51465 32.1904L6.94921 33.584L8.32167 32.1712L6.92995 30.7773L5.51465 32.1904ZM0 18.8633H-2V18.8633L0 18.8633ZM18.8623 0V-2H18.8623L18.8623 0ZM31.999 5.32812L30.606 6.76318L31.9991 8.11551L33.3921 6.76314L31.999 5.32812ZM45.1357 0V2C54.4489 2 61.999 9.55008 61.999 18.8633H63.999H65.999C65.999 7.34094 56.6581 -2 45.1357 -2V0ZM63.999 18.8633L61.999 18.8633C61.999 23.516 60.1171 27.725 57.0682 30.7782L58.4834 32.1914L59.8986 33.6046C63.6656 29.8323 65.999 24.6186 65.999 18.8633L63.999 18.8633ZM58.4834 32.1914L57.0692 33.6056L57.1024 33.6388L58.5166 32.2246L59.9308 30.8104L59.8976 30.7772L58.4834 32.1914ZM58.5166 32.2246L57.1024 30.8104L30.5848 57.328L31.999 58.7422L33.4132 60.1564L59.9308 33.6388L58.5166 32.2246ZM31.999 58.7422L33.4132 57.328L6.89566 30.8104L5.48145 32.2246L4.06723 33.6388L30.5848 60.1564L31.999 58.7422ZM5.48145 32.2246L6.916 33.6182L6.94921 33.584L5.51465 32.1904L4.08009 30.7969L4.04689 30.831L5.48145 32.2246ZM5.51465 32.1904L6.92995 30.7773C3.88156 27.7242 2.00006 23.5156 2 18.8633L0 18.8633L-2 18.8633C-1.99993 24.6181 0.332869 29.8313 4.09935 33.6036L5.51465 32.1904ZM0 18.8633H2C2 9.55009 9.54937 2.00016 18.8623 2L18.8623 0L18.8623 -2C7.34001 -1.9998 -2 7.34115 -2 18.8633H0ZM18.8623 0V2C23.4287 2 27.5673 3.81347 30.606 6.76318L31.999 5.32812L33.3921 3.89307C29.6377 0.24856 24.511 -2 18.8623 -2V0ZM31.999 5.32812L33.3921 6.76314C36.4306 3.81339 40.5693 2.00011 45.1358 2L45.1357 0L45.1357 -2C39.4871 -1.99986 34.3603 0.248373 30.6059 3.89311L31.999 5.32812Z" fill="white" mask="url(#path-1-inside-1_27_22)"/>
</svg>
